<svg version="1.1" viewBox="0.0 0.0 932.98687664042 929.1154855643044" fill="none" stroke="none" stroke-linecap="square" stroke-miterlimit="10" xmlns:xlink="http://www.w3.org/1999/xlink" xmlns="http://www.w3.org/2000/svg"><clipPath id="p.0"><path d="m0 0l932.9869 0l0 929.1155l-932.9869 0l0 -929.1155z" clip-rule="nonzero"/></clipPath><g clip-path="url(#p.0)"><path fill="#ffffff" d="m0 0l932.9869 0l0 929.1155l-932.9869 0z" fill-rule="evenodd"/><path fill="#000000" d="m490.74014 10.952756l-21.070862 160.15747l-21.070862 -160.15747z" fill-rule="evenodd"/><path fill="#000000" d="m427.933 19.496521l98.36221 128.15749l-128.15747 -98.36221z" fill-rule="evenodd"/><path fill="#000000" d="m389.56314 69.95564l160.189 21.070862l-160.189 21.07087z" fill-rule="evenodd"/><path fill="#000000" d="m541.18146 49.301373l-128.15747 98.3622l98.36218 -128.15747z" fill-rule="evenodd"/><path fill="#000000" d="m447.58258 166.01312l-64.04724 38.18898l49.590546 -55.732285z" fill-rule="evenodd"/><path fill="#000000" d="m418.30698 166.01312l64.04724 38.18898l-49.590546 -55.732285z" fill-rule="evenodd"/><path fill="#000000" d="m525.0826 166.01312l-64.04724 38.18898l49.590546 -55.732285z" fill-rule="evenodd"/><path fill="#000000" d="m495.80698 166.01312l64.04727 38.18898l-49.590576 -55.732285z" fill-rule="evenodd"/><path fill="#000000" d="m381.2257 298.92313l-73.66928 -28.283478l73.7323 -28.283463z" fill-rule="evenodd"/><path fill="#000000" d="m415.39896 250.34491l-27.748047 -39.716537l40.472443 30.771652z" fill-rule="evenodd"/><path fill="#000000" d="m415.39896 232.14853l-27.748047 39.716522l40.472443 -30.771652z" fill-rule="evenodd"/><path fill="#000000" d="m443.64896 250.34491l-27.748047 -39.716537l40.472443 30.771652z" fill-rule="evenodd"/><path fill="#000000" d="m443.64896 232.14853l-27.748047 39.716522l40.472443 -30.771652z" fill-rule="evenodd"/><path fill="#000000" d="m472.64896 250.34491l-27.748047 -39.716537l40.472443 30.771652z" fill-rule="evenodd"/><path fill="#000000" d="m472.64896 232.14853l-27.748047 39.716522l40.472443 -30.771652z" fill-rule="evenodd"/><path fill="#000000" d="m501.14896 250.34491l-27.748047 -39.716537l40.472443 30.771652z" fill-rule="evenodd"/><path fill="#000000" d="m501.14896 232.14853l-27.748047 39.716522l40.472443 -30.771652z" fill-rule="evenodd"/><path fill="#000000" d="m529.6489 250.34491l-27.748016 -39.716537l40.472443 30.771652z" fill-rule="evenodd"/><path fill="#000000" d="m529.6489 232.14853l-27.748016 39.716522l40.472443 -30.771652z" fill-rule="evenodd"/><path fill="#000000" d="m415.39896 307.8449l-27.748047 -39.716522l40.472443 30.771637z" fill-rule="evenodd"/><path fill="#000000" d="m415.39896 289.64853l-27.748047 39.716522l40.472443 -30.771637z" fill-rule="evenodd"/><path fill="#000000" d="m443.64896 307.8449l-27.748047 -39.716522l40.472443 30.771637z" fill-rule="evenodd"/><path fill="#000000" d="m443.64896 289.64853l-27.748047 39.716522l40.472443 -30.771637z" fill-rule="evenodd"/><path fill="#000000" d="m472.64896 307.8449l-27.748047 -39.716522l40.472443 30.771637z" fill-rule="evenodd"/><path fill="#000000" d="m472.64896 289.64853l-27.748047 39.716522l40.472443 -30.771637z" fill-rule="evenodd"/><path fill="#000000" d="m501.14896 307.8449l-27.748047 -39.716522l40.472443 30.771637z" fill-rule="evenodd"/><path fill="#000000" d="m501.14896 289.64853l-27.748047 39.716522l40.472443 -30.771637z" fill-rule="evenodd"/><path fill="#000000" d="m529.6489 307.8449l-27.748016 -39.716522l40.472443 30.771637z" fill-rule="evenodd"/><path fill="#000000" d="m529.6489 289.64853l-27.748016 39.716522l40.472443 -30.771637z" fill-rule="evenodd"/><path fill="#000000" d="m520.235 582.7885l-56.54184 -123.67105l3.162445 -1.8232727l78.891235 110.785645z" fill-rule="evenodd"/><path fill="#000000" d="m410.4428 333.67093l56.47885 123.67105l-3.162445 1.8232727l-78.82822 -110.785645z" fill-rule="evenodd"/><path fill="#000000" d="m384.92648 568.0525l78.82822 -110.81714l3.162445 1.8232727l-56.47885 123.702545z" fill-rule="evenodd"/><path fill="#000000" d="m545.7507 348.41647l-78.85971 110.75415l-3.162445 -1.8232727l56.510376 -123.63956z" fill-rule="evenodd"/><path fill="#000000" d="m355.53345 377.81488l110.81714 78.82822l-1.8232727 3.162445l-123.702545 -56.47885z" fill-rule="evenodd"/><path fill="#000000" d="m575.1695 538.6391l-110.75418 -78.85974l1.8233032 -3.162445l123.639496 56.510345z" fill-rule="evenodd"/><path fill="#000000" d="m589.90967 403.33408l-123.67105 56.54184l-1.8232727 -3.1624146l110.785645 -78.891235z" fill-rule="evenodd"/><path fill="#000000" d="m340.7921 513.1263l123.67102 -56.47885l1.8233032 3.162445l-110.785675 78.82825z" fill-rule="evenodd"/><path fill="#000000" d="m913.24615 483.83154l-160.15753 -21.070892l160.15753 -21.070862z" fill-rule="evenodd"/><path fill="#000000" d="m904.70233 421.02438l-128.15747 98.36221l98.36224 -128.15747z" fill-rule="evenodd"/><path fill="#000000" d="m854.2432 382.6545l-21.070862 160.189l-21.070862 -160.189z" fill-rule="evenodd"/><path fill="#000000" d="m874.8975 534.2728l-98.36224 -128.15747l128.15753 98.36221z" fill-rule="evenodd"/><path fill="#000000" d="m758.1858 440.67395l-38.189026 -64.04724l55.7323 49.590546z" fill-rule="evenodd"/><path fill="#000000" d="m758.1858 411.39835l-38.189026 64.04727l55.7323 -49.590576z" fill-rule="evenodd"/><path fill="#000000" d="m758.1858 518.17395l-38.189026 -64.04724l55.7323 49.590546z" fill-rule="evenodd"/><path fill="#000000" d="m758.1858 488.89835l-38.189026 64.04727l55.7323 -49.590576z" fill-rule="evenodd"/><path fill="#000000" d="m625.27576 374.3171l28.283447 -73.66931l28.283508 73.7323z" fill-rule="evenodd"/><path fill="#000000" d="m673.85394 408.49033l39.716553 -27.748047l-30.771667 40.472443z" fill-rule="evenodd"/><path fill="#000000" d="m692.05035 408.49033l-39.716553 -27.748047l30.771667 40.472443z" fill-rule="evenodd"/><path fill="#000000" d="m673.85394 436.74033l39.716553 -27.748047l-30.771667 40.472443z" fill-rule="evenodd"/><path fill="#000000" d="m692.05035 436.74033l-39.716553 -27.748047l30.771667 40.472443z" fill-rule="evenodd"/><path fill="#000000" d="m673.85394 465.74033l39.716553 -27.748047l-30.771667 40.472443z" fill-rule="evenodd"/><path fill="#000000" d="m692.05035 465.74033l-39.716553 -27.748047l30.771667 40.472443z" fill-rule="evenodd"/><path fill="#000000" d="m673.85394 494.24033l39.716553 -27.748047l-30.771667 40.472443z" fill-rule="evenodd"/><path fill="#000000" d="m692.05035 494.24033l-39.716553 -27.748047l30.771667 40.472443z" fill-rule="evenodd"/><path fill="#000000" d="m673.85394 522.7403l39.716553 -27.748016l-30.771667 40.472443z" fill-rule="evenodd"/><path fill="#000000" d="m692.05035 522.7403l-39.716553 -27.748016l30.771667 40.472443z" fill-rule="evenodd"/><path fill="#000000" d="m616.35394 408.49033l39.716553 -27.748047l-30.771667 40.472443z" fill-rule="evenodd"/><path fill="#000000" d="m634.55035 408.49033l-39.716553 -27.748047l30.771667 40.472443z" fill-rule="evenodd"/><path fill="#000000" d="m616.35394 436.74033l39.716553 -27.748047l-30.771667 40.472443z" fill-rule="evenodd"/><path fill="#000000" d="m634.55035 436.74033l-39.716553 -27.748047l30.771667 40.472443z" fill-rule="evenodd"/><path fill="#000000" d="m616.35394 465.74033l39.716553 -27.748047l-30.771667 40.472443z" fill-rule="evenodd"/><path fill="#000000" d="m634.55035 465.74033l-39.716553 -27.748047l30.771667 40.472443z" fill-rule="evenodd"/><path fill="#000000" d="m616.35394 494.24033l39.716553 -27.748047l-30.771667 40.472443z" fill-rule="evenodd"/><path fill="#000000" d="m634.55035 494.24033l-39.716553 -27.748047l30.771667 40.472443z" fill-rule="evenodd"/><path fill="#000000" d="m616.35394 522.7403l39.716553 -27.748016l-30.771667 40.472443z" fill-rule="evenodd"/><path fill="#000000" d="m634.55035 522.7403l-39.716553 -27.748016l30.771667 40.472443z" fill-rule="evenodd"/><path fill="#000000" d="m439.86734 908.3375l21.070892 -160.15753l21.070862 160.15753z" fill-rule="evenodd"/><path fill="#000000" d="m502.6745 899.79376l-98.36221 -128.15753l128.1575 98.36224z" fill-rule="evenodd"/><path fill="#000000" d="m380.8554 849.3346l160.18896 -21.070862l-160.18896 -21.070862z" fill-rule="evenodd"/><path fill="#000000" d="m389.42606 869.9889l128.1575 -98.36218l-98.36224 128.15747z" fill-rule="evenodd"/><path fill="#000000" d="m483.02493 753.27716l64.04727 -38.189026l-49.590576 55.7323z" fill-rule="evenodd"/><path fill="#000000" d="m512.30054 753.27716l-64.04727 -38.189026l49.590576 55.7323z" fill-rule="evenodd"/><path fill="#000000" d="m405.52493 753.27716l64.04724 -38.189026l-49.590546 55.7323z" fill-rule="evenodd"/><path fill="#000000" d="m434.80054 753.27716l-64.04727 -38.189026l49.590576 55.7323z" fill-rule="evenodd"/><path fill="#000000" d="m549.3818 620.3671l73.66931 28.283447l-73.7323 28.283508z" fill-rule="evenodd"/><path fill="#000000" d="m515.20856 668.9453l27.748047 39.716553l-40.472443 -30.771667z" fill-rule="evenodd"/><path fill="#000000" d="m515.20856 687.1417l27.748047 -39.716553l-40.472443 30.771667z" fill-rule="evenodd"/><path fill="#000000" d="m486.95856 668.9453l27.748047 39.716553l-40.472443 -30.771667z" fill-rule="evenodd"/><path fill="#000000" d="m486.95856 687.1417l27.748047 -39.716553l-40.472443 30.771667z" fill-rule="evenodd"/><path fill="#000000" d="m457.95856 668.9453l27.748047 39.716553l-40.472443 -30.771667z" fill-rule="evenodd"/><path fill="#000000" d="m457.95856 687.1417l27.748047 -39.716553l-40.472443 30.771667z" fill-rule="evenodd"/><path fill="#000000" d="m429.45856 668.9453l27.748047 39.716553l-40.472443 -30.771667z" fill-rule="evenodd"/><path fill="#000000" d="m429.45856 687.1417l27.748047 -39.716553l-40.472443 30.771667z" fill-rule="evenodd"/><path fill="#000000" d="m400.95856 668.9453l27.748047 39.716553l-40.472443 -30.771667z" fill-rule="evenodd"/><path fill="#000000" d="m400.95856 687.1417l27.748047 -39.716553l-40.472443 30.771667z" fill-rule="evenodd"/><path fill="#000000" d="m515.20856 611.4453l27.748047 39.716553l-40.472443 -30.771667z" fill-rule="evenodd"/><path fill="#000000" d="m515.20856 629.6417l27.748047 -39.716553l-40.472443 30.771667z" fill-rule="evenodd"/><path fill="#000000" d="m486.95856 611.4453l27.748047 39.716553l-40.472443 -30.771667z" fill-rule="evenodd"/><path fill="#000000" d="m486.95856 629.6417l27.748047 -39.716553l-40.472443 30.771667z" fill-rule="evenodd"/><path fill="#000000" d="m457.95856 611.4453l27.748047 39.716553l-40.472443 -30.771667z" fill-rule="evenodd"/><path fill="#000000" d="m457.95856 629.6417l27.748047 -39.716553l-40.472443 30.771667z" fill-rule="evenodd"/><path fill="#000000" d="m429.45856 611.4453l27.748047 39.716553l-40.472443 -30.771667z" fill-rule="evenodd"/><path fill="#000000" d="m429.45856 629.6417l27.748047 -39.716553l-40.472443 30.771667z" fill-rule="evenodd"/><path fill="#000000" d="m400.95856 611.4453l27.748047 39.716553l-40.472443 -30.771667z" fill-rule="evenodd"/><path fill="#000000" d="m400.95856 629.6417l27.748047 -39.716553l-40.472443 30.771667z" fill-rule="evenodd"/><path fill="#000000" d="m15.361382 432.95874l160.15747 21.070862l-160.15747 21.070862z" fill-rule="evenodd"/><path fill="#000000" d="m23.905148 495.76587l128.15747 -98.36221l-98.3622 128.1575z" fill-rule="evenodd"/><path fill="#000000" d="m74.364265 373.94678l21.070862 160.18896l21.07087 -160.18896z" fill-rule="evenodd"/><path fill="#000000" d="m53.709995 382.51743l98.36221 128.15747l-128.15749 -98.36218z" fill-rule="evenodd"/><path fill="#000000" d="m170.42175 476.1163l38.188965 64.04727l-55.732285 -49.590576z" fill-rule="evenodd"/><path fill="#000000" d="m170.42175 505.3919l38.188965 -64.04724l-55.732285 49.590546z" fill-rule="evenodd"/><path fill="#000000" d="m170.42175 398.6163l38.188965 64.04724l-55.732285 -49.590546z" fill-rule="evenodd"/><path fill="#000000" d="m170.42175 427.8919l38.188965 -64.04724l-55.732285 49.590546z" fill-rule="evenodd"/><path fill="#000000" d="m303.33176 542.47314l-28.283478 73.66931l-28.283463 -73.7323z" fill-rule="evenodd"/><path fill="#000000" d="m254.75354 508.29993l-39.716537 27.748047l30.771652 -40.472443z" fill-rule="evenodd"/><path fill="#000000" d="m236.55714 508.29993l39.716537 27.748047l-30.771652 -40.472443z" fill-rule="evenodd"/><path fill="#000000" d="m254.75354 480.04993l-39.716537 27.748047l30.771652 -40.472443z" fill-rule="evenodd"/><path fill="#000000" d="m236.55714 480.04993l39.716537 27.748047l-30.771652 -40.472443z" fill-rule="evenodd"/><path fill="#000000" d="m254.75354 451.04993l-39.716537 27.748047l30.771652 -40.472443z" fill-rule="evenodd"/><path fill="#000000" d="m236.55714 451.04993l39.716537 27.748047l-30.771652 -40.472443z" fill-rule="evenodd"/><path fill="#000000" d="m254.75354 422.54993l-39.716537 27.748047l30.771652 -40.472443z" fill-rule="evenodd"/><path fill="#000000" d="m236.55714 422.54993l39.716537 27.748047l-30.771652 -40.472443z" fill-rule="evenodd"/><path fill="#000000" d="m254.75354 394.04993l-39.716537 27.748047l30.771652 -40.472443z" fill-rule="evenodd"/><path fill="#000000" d="m236.55714 394.04993l39.716537 27.748047l-30.771652 -40.472443z" fill-rule="evenodd"/><path fill="#000000" d="m312.25354 508.29993l-39.716522 27.748047l30.771637 -40.472443z" fill-rule="evenodd"/><path fill="#000000" d="m294.05716 508.29993l39.716522 27.748047l-30.771637 -40.472443z" fill-rule="evenodd"/><path fill="#000000" d="m312.25354 480.04993l-39.716522 27.748047l30.771637 -40.472443z" fill-rule="evenodd"/><path fill="#000000" d="m294.05716 480.04993l39.716522 27.748047l-30.771637 -40.472443z" fill-rule="evenodd"/><path fill="#000000" d="m312.25354 451.04993l-39.716522 27.748047l30.771637 -40.472443z" fill-rule="evenodd"/><path fill="#000000" d="m294.05716 451.04993l39.716522 27.748047l-30.771637 -40.472443z" fill-rule="evenodd"/><path fill="#000000" d="m312.25354 422.54993l-39.716522 27.748047l30.771637 -40.472443z" fill-rule="evenodd"/><path fill="#000000" d="m294.05716 422.54993l39.716522 27.748047l-30.771637 -40.472443z" fill-rule="evenodd"/><path fill="#000000" d="m312.25354 394.04993l-39.716522 27.748047l30.771637 -40.472443z" fill-rule="evenodd"/><path fill="#000000" d="m294.05716 394.04993l39.716522 27.748047l-30.771637 -40.472443z" fill-rule="evenodd"/><path fill="#000000" d="m807.93396 359.75623l0 4.1004333l8.926819 0l0 -4.1004333zm16.531921 -12.3177185l-7.557312 3.4981384l1.5758057 4.661438l5.1152344 -2.2276l0 20.172058l6.2372437 0l0 -26.104034z" fill-rule="evenodd"/><path fill="#000000" d="m842.45703 346.98474c-1.9251099 0 -3.5476685 0.261261 -4.867737 0.78375244c-1.3145142 0.522522 -2.5135498 1.2238159 -3.597107 2.1038513l2.3843384 4.0509033c1.7215576 -1.3145447 3.3606567 -1.9718323 4.9171753 -1.9718323c0.97906494 0 1.8068237 0.26953125 2.4833374 0.8085327c0.6765747 0.539032 1.0148315 1.3998108 1.0148315 2.582367c0 0.7095337 -0.11004639 1.4107971 -0.3300171 2.1038208c-0.22003174 0.6930237 -0.5940552 1.4548035 -1.1220703 2.2853394c-0.522522 0.8250427 -1.2402954 1.7463379 -2.1533203 2.7638855c-0.90753174 1.0120239 -2.0708618 2.17807 -3.4898682 3.4981384l-3.8034058 3.547638l1.0147705 4.001404l16.418152 0l0 -4.818207l-9.933411 0l2.5823975 -2.3760986c2.4365845 -2.2990723 4.2296143 -4.361664 5.3792114 -6.187744c1.1495361 -1.8260498 1.7243042 -3.6686401 1.7243042 -5.52771c0 -1.1110535 -0.20349121 -2.1395874 -0.61053467 -3.0856323c-0.40704346 -0.9515381 -0.9818115 -1.7628174 -1.7243042 -2.433838c-0.7425537 -0.6765137 -1.6473389 -1.1990356 -2.7143555 -1.5675659c-1.0615845 -0.37402344 -2.2523804 -0.56100464 -3.5723877 -0.56100464z" fill-rule="evenodd"/><path fill="#000000" d="m865.62524 351.90192c0.6765137 0 1.309082 0.14300537 1.897583 0.4290161c0.59399414 0.28601074 1.1000366 0.76730347 1.5180664 1.4438171c0.42352295 0.6765137 0.7617798 1.5565491 1.0147705 2.6401062c0.25305176 1.0780334 0.3795166 2.4118347 0.3795166 4.001404c0 1.5840759 -0.1182251 2.926117 -0.35473633 4.0261536c-0.23651123 1.1000671 -0.57476807 1.9883423 -1.0148315 2.664856c-0.43450928 0.6765442 -0.9404907 1.1578064 -1.5180664 1.4438171c-0.5720215 0.28601074 -1.1962891 0.4290161 -1.8728027 0.4290161c-0.7095337 0 -1.3612671 -0.14300537 -1.9553223 -0.4290161c-0.588501 -0.28601074 -1.0945435 -0.76727295 -1.5180664 -1.4438171c-0.42352295 -0.6765137 -0.7617798 -1.5647888 -1.0147705 -2.664856c-0.25305176 -1.1000366 -0.3795166 -2.4420776 -0.3795166 -4.0261536c0 -1.5895691 0.1182251 -2.9233704 0.35473633 -4.001404c0.23651123 -1.0835571 0.57476807 -1.9635925 1.0148315 -2.6401062c0.44000244 -0.6765137 0.95428467 -1.1578064 1.5427856 -1.4438171c0.5940552 -0.28601074 1.2293091 -0.4290161 1.9058228 -0.4290161zm0.04949951 -4.9171753c-1.5235596 0 -2.9700928 0.27774048 -4.3396606 0.8332825c-1.3640747 0.5555115 -2.5548706 1.3915405 -3.5723877 2.5080872c-1.0120239 1.1165466 -1.8150635 2.519104 -2.4091187 4.207672c-0.588501 1.6885681 -0.88275146 3.6493835 -0.88275146 5.882477c0 2.3320923 0.2694702 4.3506775 0.8085327 6.0557556c0.5444946 1.7050476 1.3145142 3.1158752 2.3100586 4.232422c0.99554443 1.1165466 2.1698608 1.9443054 3.5228882 2.4833374c1.3530884 0.539032 2.8408813 0.8085327 4.46344 0.8085327c1.5180664 0 2.9536133 -0.277771 4.3067017 -0.8332825c1.3530273 -0.5555115 2.5355835 -1.3998108 3.5476074 -2.5328674c1.0120239 -1.1330261 1.8123169 -2.5438232 2.400879 -4.2323914c0.59399414 -1.6940918 0.8909912 -3.6878967 0.8909912 -5.9815063c0 -2.3320923 -0.2694702 -4.342407 -0.8085327 -6.0309753c-0.53900146 -1.6940918 -1.3007812 -3.088379 -2.2853394 -4.1829224c-0.9790039 -1.1000366 -2.1450806 -1.9113464 -3.498108 -2.4338684c-1.3475952 -0.52249146 -2.8326416 -0.78375244 -4.4552 -0.78375244z" fill-rule="evenodd"/><path fill="#000000" d="m886.65765 346.98474c-1.5180664 0 -2.8601074 0.16775513 -4.026184 0.5032654c-1.1660156 0.33551025 -2.2385864 0.8250122 -3.2175903 1.4685364l1.8233032 4.364441c1.4520264 -0.9460449 2.9205933 -1.4190674 4.4057007 -1.4190674c1.0175171 0 1.8452759 0.2447815 2.4833374 0.73428345c0.64349365 0.48953247 0.965271 1.2073059 0.965271 2.1533508c0 1.0120239 -0.39050293 1.8068237 -1.1715698 2.3843384c-0.7755127 0.5720215 -1.9223022 0.8580322 -3.4403687 0.8580322l-2.2770996 0l0 4.7109375l3.1351318 0c1.5895996 0 2.763855 0.29699707 3.5228882 0.8910217c0.76452637 0.5885315 1.1467896 1.375061 1.1467896 2.3596191c0 0.9790344 -0.41522217 1.7297974 -1.2457886 2.2523193c-0.8250122 0.522522 -1.9470825 0.78378296 -3.36615 0.78378296c-1.0175171 0 -1.9498291 -0.12649536 -2.796814 -0.3795166c-0.84155273 -0.25299072 -1.7023315 -0.5665283 -2.5823975 -0.94052124l-1.3117676 4.620178c0.9790039 0.50601196 2.1257935 0.9102783 3.4403687 1.2127991c1.3200684 0.30252075 2.7061157 0.45376587 4.158142 0.45376587c2.942627 0 5.3242188 -0.64901733 7.1448364 -1.9470825c1.8260498 -1.3035583 2.7390747 -3.223114 2.7390747 -5.758728c0 -1.5840759 -0.4812622 -2.926117 -1.4437866 -4.0261536c-0.9625244 -1.1000366 -2.2385864 -1.8178406 -3.828186 -2.1533508c1.2155762 -0.50601196 2.255127 -1.2650452 3.1186523 -2.277069c0.8635254 -1.0175476 1.2952881 -2.337616 1.2952881 -3.9601746c0 -0.9790344 -0.20349121 -1.8893127 -0.61053467 -2.7308655c-0.40698242 -0.8470154 -0.99005127 -1.5730591 -1.7490234 -2.17807c-0.7590332 -0.61053467 -1.6721191 -1.0917969 -2.7391357 -1.4438171c-1.0615234 -0.35751343 -2.2523193 -0.5362549 -3.5723877 -0.5362549z" fill-rule="evenodd"/><path fill="#000000" d="m905.722 347.4385l-7.557312 3.4981384l1.5758057 4.661438l5.1152344 -2.2276l0 20.172058l6.2372437 0l0 -26.104034z" fill-rule="evenodd"/><path fill="#000000" d="m754.78467 329.06628l0 30.53415c0 7.4585876 1.9310913 12.959534 5.793274 16.502808c3.8621216 3.5343933 9.168213 5.301605 15.918152 5.301605c7.024536 0 12.317261 -1.7672119 15.878296 -5.301605c3.5609741 -3.543274 5.3414307 -8.906921 5.3414307 -16.090912l0 -30.946045l-11.174561 0l0 31.756592c0 3.5432434 -0.7928467 6.4310303 -2.378418 8.6633c-1.5767822 2.2233887 -4.1323853 3.335083 -7.666748 3.335083c-3.5964355 0 -6.2539062 -1.0983887 -7.972412 -3.295227c-1.7095947 -2.2056885 -2.5644531 -5.4300537 -2.5644531 -9.673126l0 -30.786621z" fill-rule="evenodd"/><path fill="#000000" d="m809.6291 330.99844c-0.756958 0 -1.4472046 0.14624023 -2.0706787 0.43875122c-0.6209717 0.2899475 -1.1918945 0.70306396 -1.7127686 1.2393494l-0.37713623 -1.4433289l-2.4594116 0l0 11.280945l3.1444702 0l0 -7.8285522c0.3618164 -0.39257812 0.7672119 -0.70303345 1.2162476 -0.9313965c0.44903564 -0.22836304 0.8787842 -0.3425598 1.2893677 -0.3425598c0.55163574 0 0.9686279 0.16934204 1.2508545 0.50805664c0.28479004 0.33868408 0.4272461 0.7992859 0.4272461 1.3817139l0 7.212738l3.1444702 0l0 -7.5437317c0 -1.2932129 -0.33099365 -2.2785034 -0.99298096 -2.955902c-0.6619873 -0.6773987 -1.6152344 -1.0160828 -2.8596802 -1.0160828z" fill-rule="evenodd"/><path fill="#000000" d="m818.1897 325.60623c-0.5362549 0 -0.9545288 0.15393066 -1.2546997 0.46185303c-0.29766846 0.30789185 -0.44647217 0.69021606 -0.44647217 1.1469421c0 0.45672607 0.14880371 0.8390503 0.44647217 1.1469727c0.3001709 0.30789185 0.7184448 0.46185303 1.2546997 0.46185303c0.5362549 0 0.9532471 -0.15396118 1.2508545 -0.46185303c0.30023193 -0.30792236 0.45031738 -0.6902466 0.45031738 -1.1469727c0 -0.45672607 -0.15393066 -0.8390503 -0.46185303 -1.1469421c-0.30529785 -0.30792236 -0.7184448 -0.46185303 -1.2393188 -0.46185303zm-1.5856934 5.6269836l0 11.280945l3.1444702 0l0 -11.280945z" fill-rule="evenodd"/><path fill="#000000" d="m828.38043 330.99844c-0.8980713 0 -1.7255859 0.14239502 -2.482483 0.42721558c-0.756958 0.28225708 -1.4035645 0.6838074 -1.9398193 1.2046814c-0.5362549 0.520874 -0.9545288 1.1443787 -1.2546997 1.8705444c-0.29766846 0.7235718 -0.44647217 1.5267029 -0.44647217 2.4093628c0 0.96221924 0.15777588 1.8063965 0.47338867 2.5325317c0.3156128 0.7235718 0.7453613 1.334259 1.2893677 1.8320618c0.5439453 0.49520874 1.1854248 0.869812 1.9243774 1.1238403c0.74157715 0.25146484 1.538269 0.37719727 2.3901367 0.37719727c0.7081909 0 1.361206 -0.079559326 1.9591064 -0.23861694c0.60040283 -0.15652466 1.0584106 -0.32202148 1.3740234 -0.496521l-0.5888672 -2.174591c-0.25402832 0.12573242 -0.57476807 0.25531006 -0.96221924 0.3887329c-0.3848877 0.13342285 -0.8287964 0.20013428 -1.3317261 0.20013428c-0.41052246 0 -0.8133545 -0.06286621 -1.2084961 -0.18856812c-0.39257812 -0.12573242 -0.7467041 -0.32974243 -1.0623169 -0.611969c-0.3156128 -0.28482056 -0.5722046 -0.65945435 -0.7697754 -1.1238708c-0.1975708 -0.46697998 -0.29632568 -1.0391846 -0.29632568 -1.7165833c0 -1.1495056 0.30273438 -2.0231934 0.9083252 -2.6210632c0.60809326 -0.60040283 1.40094 -0.90060425 2.37854 -0.90060425c0.39520264 0 0.7852173 0.05899048 1.170105 0.17703247c0.38739014 0.11804199 0.74664307 0.27197266 1.0776367 0.46185303l0.6619873 -2.1784363c-0.59783936 -0.31304932 -1.1687622 -0.5170288 -1.7127075 -0.611969c-0.5439453 -0.094940186 -1.0609741 -0.14239502 -1.5510864 -0.14239502z" fill-rule="evenodd"/><path fill="#000000" d="m838.2183 333.31543c0.33099365 0 0.6542969 0.066711426 0.96990967 0.20013428c0.31555176 0.13345337 0.59143066 0.3425598 0.8274536 0.6273804c0.23608398 0.28482056 0.42468262 0.6555786 0.5657959 1.1123047c0.14367676 0.45672607 0.21551514 1.0083923 0.21551514 1.6549988c0 0.6619873 -0.07183838 1.2175293 -0.21551514 1.6665344c-0.14111328 0.44903564 -0.3297119 0.815979 -0.5657959 1.100769c-0.23602295 0.28225708 -0.5041504 0.48239136 -0.8043823 0.60043335c-0.30023193 0.118011475 -0.6158447 0.17703247 -0.9468384 0.17703247c-0.33099365 0 -0.65045166 -0.07055664 -0.958313 -0.21166992c-0.3053589 -0.1411438 -0.58117676 -0.35281372 -0.82751465 -0.6350708c-0.24377441 -0.28482056 -0.43621826 -0.6517334 -0.57733154 -1.100769c-0.14111328 -0.45159912 -0.21166992 -0.9840088 -0.21166992 -1.5972595c0 -0.69277954 0.07055664 -1.2675476 0.21166992 -1.7242737c0.14111328 -0.45928955 0.3297119 -0.8262329 0.5657959 -1.100769c0.23858643 -0.27713013 0.50671387 -0.47470093 0.8043823 -0.5927124c0.30023193 -0.11804199 0.6157837 -0.17706299 0.9468384 -0.17706299zm0.0692749 -2.316986c-0.8185425 0 -1.5831909 0.13470459 -2.2939453 0.40411377c-0.7081909 0.26687622 -1.3265381 0.65689087 -1.8551025 1.170044c-0.52856445 0.5106201 -0.94299316 1.140564 -1.2431641 1.889801c-0.29766846 0.74923706 -0.44647217 1.60495 -0.44647217 2.5671692c0 0.91345215 0.1449585 1.7294006 0.4348755 2.4478455c0.2925415 0.71588135 0.69537354 1.3188782 1.2085571 1.80896c0.5131836 0.4875183 1.1199951 0.85827637 1.8204956 1.1123047c0.7005005 0.25146484 1.4613037 0.37719727 2.2823486 0.37719727c0.8185425 0 1.5819092 -0.13726807 2.2901 -0.41183472c0.71069336 -0.2770996 1.3303833 -0.6722717 1.8589478 -1.1854248c0.52856445 -0.5131836 0.9417114 -1.1392517 1.2393188 -1.8782349c0.30023193 -0.74154663 0.45031738 -1.5780334 0.45031738 -2.5094604c0 -0.9442444 -0.14624023 -1.779419 -0.43878174 -2.5055847c-0.289917 -0.72613525 -0.6914673 -1.3291321 -1.2046509 -1.80896c-0.5106201 -0.48236084 -1.1174316 -0.8493042 -1.8204956 -1.100769c-0.7005005 -0.25143433 -1.4613037 -0.37716675 -2.2823486 -0.37716675z" fill-rule="evenodd"/><path fill="#000000" d="m851.6719 333.29236c0.3951416 0 0.75823975 0.08721924 1.0892334 0.26171875c0.33099365 0.17190552 0.5991211 0.38357544 0.8043823 0.6350403l0 5.0381165c-0.17443848 0.33102417 -0.43878174 0.6184082 -0.7928467 0.8621521c-0.35406494 0.24377441 -0.7838745 0.3656311 -1.2893677 0.3656311c-0.36175537 0 -0.7043457 -0.07055664 -1.0276489 -0.21166992c-0.32330322 -0.1411438 -0.6029663 -0.3617859 -0.8390503 -0.6620178c-0.23602295 -0.30020142 -0.42590332 -0.6786804 -0.5695801 -1.1354065c-0.14117432 -0.45672607 -0.21173096 -1.0006714 -0.21173096 -1.631897c0 -0.64660645 0.078308105 -1.1944275 0.23480225 -1.6434631c0.15905762 -0.44900513 0.3682251 -0.81082153 0.6273804 -1.0853577c0.26171875 -0.27713013 0.56188965 -0.47854614 0.90063477 -0.60427856c0.33868408 -0.12573242 0.69659424 -0.18856812 1.0737915 -0.18856812zm1.8936157 -7.6630554l0 6.2197266c-0.28479004 -0.25146484 -0.66711426 -0.45544434 -1.1469116 -0.611969c-0.4798584 -0.15908813 -0.98791504 -0.23861694 -1.5241699 -0.23861694c-0.8364868 0 -1.5780029 0.1385498 -2.2246094 0.41567993c-0.64660645 0.27453613 -1.1906128 0.668396 -1.631897 1.1815796c-0.4413452 0.5106201 -0.7800293 1.1289978 -1.0161133 1.855133c-0.23608398 0.7261658 -0.35406494 1.538269 -0.35406494 2.4363098c0 0.9288635 0.12957764 1.7563782 0.3887329 2.4825134c0.26171875 0.7235718 0.62091064 1.3381042 1.0776367 1.8435974c0.45672607 0.50546265 0.9916992 0.8929138 1.6049805 1.1623535c0.6157837 0.2668457 1.2791138 0.40026855 1.9898682 0.40026855c0.8493042 0 1.538208 -0.15011597 2.0667725 -0.45031738c0.5286255 -0.30020142 0.93530273 -0.64660645 1.2200928 -1.0391846l0.115478516 0l0.33099365 1.2277832l2.2477417 0l0 -16.884857z" fill-rule="evenodd"/><path fill="#000000" d="m864.5157 333.2192c0.34643555 0 0.6376343 0.06414795 0.87371826 0.19244385c0.23608398 0.12573242 0.43237305 0.29507446 0.5888672 0.50805664c0.15905762 0.21295166 0.2732544 0.46185303 0.3425293 0.7466736c0.07183838 0.28225708 0.107788086 0.5734863 0.107788086 0.87368774l-4.206787 0.046173096c0.07696533 -0.72613525 0.32073975 -1.302185 0.7312622 -1.7281189c0.4105835 -0.42593384 0.9314575 -0.638916 1.5626221 -0.638916zm0.115478516 -2.2207642c-0.8493042 0 -1.6216431 0.14624023 -2.3169556 0.43875122c-0.69281006 0.2899475 -1.2880859 0.69537354 -1.7858887 1.2162476c-0.49523926 0.520874 -0.8775635 1.1482239 -1.1469727 1.8820801c-0.2668457 0.7312622 -0.40026855 1.545929 -0.40026855 2.4440002c0 1.0109558 0.16552734 1.8795166 0.496521 2.6056824c0.33099365 0.7235718 0.7761841 1.3214111 1.3355103 1.7935486c0.5593872 0.47210693 1.2136841 0.8236389 1.9629517 1.0545654c0.74920654 0.22836304 1.5498047 0.3425598 2.4016724 0.3425598c0.8826294 0 1.6459961 -0.075683594 2.290039 -0.2270813c0.64660645 -0.14883423 1.1828613 -0.3258667 1.6088257 -0.5311279l-0.5657959 -2.1976929c-0.3951416 0.17190552 -0.8326416 0.32073975 -1.312439 0.44647217c-0.4798584 0.1257019 -1.0353394 0.18856812 -1.666565 0.18856812c-0.99298096 0 -1.8051147 -0.22064209 -2.4362793 -0.6619873c-0.6312256 -0.4413452 -0.9468384 -1.111023 -0.9468384 -2.0090942l0 -0.09237671l7.4975586 0l0 -1.3971252c0 -1.6703796 -0.4541626 -2.9700012 -1.3624878 -3.8988647c-0.9057617 -0.931427 -2.123291 -1.3971252 -3.652588 -1.3971252z" fill-rule="evenodd"/></g></svg>